<svg aria-hidden="true" style="width:0;height:0;position:absolute;overflow:hidden" xmlns="http://www.w3.org/2000/svg"><defs><symbol id="icon-burger" viewBox="0 0 46 32"><path fill="none" stroke="#d41443" style="stroke:var(--color1,#d41443)" stroke-width="2.286" d="M0 2.286h45.714M0 16h45.714M0 29.714h45.714"/></symbol><symbol id="icon-arrow-buy" viewBox="0 0 19 32"><path fill="none" stroke-linejoin="round" stroke-linecap="round" stroke-width="6.4" d="M3.2 3.2 16 16 3.2 28.8"/></symbol><symbol id="icon-close" viewBox="0 0 32 32"><path fill="none" stroke-width="2" d="m2.519 2 26.963 28M2 29.481 30 2.518"/></symbol><symbol id="icon-coments-house" viewBox="0 0 35 32"><path d="M34.472 15.381c.633-.649.572-1.644-.136-2.222L18.735.425c-.708-.578-1.843-.566-2.537.027L.544 13.838c-.693.593-.727 1.587-.075 2.219l.392.381c.651.632 1.704.707 2.349.168l1.17-.977v14.308c0 .878.763 1.588 1.703 1.588h6.102c.94 0 1.703-.711 1.703-1.588v-10.01h7.783v10.01c-.014.877.659 1.588 1.6 1.588h6.467c.94 0 1.703-.711 1.703-1.588V15.831l.722.591c.399.327 1.234.065 1.866-.585l.444-.455z"/></symbol><symbol id="icon-coments-marks" viewBox="0 0 43 32"><path fill="#e1e1e1" style="fill:var(--color4,#e1e1e1)" d="M32.014 0c1.929 0 3.75.52 5.464 1.561s3.107 2.537 4.179 4.488C42.686 8 43.2 10.298 43.2 12.943s-.643 5.225-1.929 7.74c-.429.911-1.2 2.081-2.314 3.512a63.368 63.368 0 0 1-3.214 3.707L31.693 32 28.8 27.187a22.03 22.03 0 0 0 5.336-4.683c1.543-1.821 2.314-3.491 2.314-5.008 0-.78-.171-1.409-.514-1.886a8.359 8.359 0 0 1-5.014 1.626c-1.329 0-2.593-.412-3.793-1.236a8.555 8.555 0 0 1-2.957-3.122c-.771-1.258-1.157-2.558-1.157-3.902 0-1.518.45-2.97 1.35-4.358a10.222 10.222 0 0 1 3.407-3.382C29.143.412 30.558 0 32.015 0zM8.936 0c1.929 0 3.75.52 5.464 1.561s3.107 2.537 4.179 4.488c1.029 1.951 1.543 4.249 1.543 6.894 0 1.864-.236 3.534-.707 5.008-.471 1.518-1.286 3.1-2.443 4.748-1.114 1.561-2.164 2.862-3.15 3.902-.986 1.084-2.7 2.884-5.143 5.398l-2.893-4.813a22.03 22.03 0 0 0 5.336-4.683c1.543-1.821 2.314-3.491 2.314-5.008 0-.78-.171-1.409-.514-1.886a8.359 8.359 0 0 1-5.014 1.626c-1.329 0-2.593-.412-3.793-1.236a8.555 8.555 0 0 1-2.957-3.122C.387 11.619.001 10.319.001 8.975c0-1.518.429-2.97 1.286-4.358S3.28 2.102 4.694 1.235C6.065.411 7.48-.001 8.937-.001z"/></symbol><symbol id="icon-footer-facebook" viewBox="0 0 16 32"><path d="M14.143 15.972h-4.034v14.865H3.997V15.972H1.09v-5.224h2.907V7.367c0-2.418 1.142-6.203 6.166-6.203l4.527.019v5.071h-3.285c-.539 0-1.296.271-1.296 1.424v3.075h4.567l-.534 5.219z"/></symbol><symbol id="icon-footer-github" viewBox="0 0 32 32"><path d="M16 0C7.212 0 0 7.212 0 16c0 7.499 5.262 14.312 12.25 16v-5.293c-.692.152-1.33.156-2.034-.052-.946-.279-1.714-.909-2.284-1.869-.364-.613-1.008-1.278-1.68-1.23l-.165-1.868c1.453-.124 2.711.886 3.457 2.14.332.558.713.884 1.203 1.029.473.14.982.072 1.574-.137.149-1.186.692-1.63 1.102-2.255v-.001c-4.167-.622-5.828-2.832-6.488-4.578-.874-2.317-.405-5.212 1.14-7.041.03-.036.084-.129.063-.194-.708-2.139.155-3.909.187-4.097.817.242.95-.243 3.551 1.337l.449.27c.188.112.129.048.317.034A13.544 13.544 0 0 1 16 7.723c1.136.015 2.273.178 3.404.484l.145.015c-.013-.002.04-.009.127-.062 3.248-1.968 3.132-1.324 4.003-1.608.032.188.883 1.987.182 4.099-.095.291 2.816 2.956 1.203 7.235-.659 1.746-2.32 3.957-6.487 4.578v.001c.534.814 1.176 1.247 1.173 2.927V32C26.738 30.312 32 23.499 32 16c0-8.788-7.212-16-16-16z"/></symbol><symbol id="icon-footer-telegram" viewBox="0 0 44 32"><path d="m17.343 21.048-.675 8.86c.966 0 1.384-.387 1.885-.852l4.527-4.038 9.381 6.412c1.72.895 2.933.424 3.397-1.477l6.159-26.93c.546-2.374-.92-3.302-2.596-2.72L3.227 13.236c-2.47.895-2.433 2.18-.42 2.762l9.253 2.686L33.554 6.132c1.012-.625 1.931-.279 1.175.346l-17.386 14.57z"/></symbol><symbol id="icon-IceCream" viewBox="0 0 127 32"><path fill="#fff" style="fill:var(--color2,#fff)" d="M31.36 16.32C31.36 24.98 24.483 32 16 32S.64 24.98.64 16.32 7.517.64 16 .64s15.36 7.02 15.36 15.68z"/><path fill="#d41443" style="fill:var(--color1,#d41443)" d="M11.849.562C4.443 2.805 0 8.635 0 16.004c0 6.023 3.091 11.277 8.179 13.904 2.64 1.346 3.027.384.58-1.474-1.739-1.41-2.061-2.05-2.061-4.421 0-1.666-.386-3.011-.966-3.524-1.159-.961-1.288-3.46-.129-4.357.451-.384.902-1.666.966-2.819.322-4.229 4.894-8.201 9.467-8.201s9.145 3.973 9.466 8.201c.064 1.153.515 2.435.966 2.819 1.159.897 1.03 3.396-.129 4.357-.58.513-.966 1.858-.966 3.524 0 2.371-.322 3.011-2.061 4.421-2.705 2.114-1.932 2.883 1.095 1.025 4.25-2.627 7.406-8.33 7.406-13.391C31.813 5.944 21.252-2.257 11.85.562z"/><path fill="#d41443" style="fill:var(--color1,#d41443)" d="M12.686 7.994c-1.159.513-2.125 1.153-2.125 1.538 0 .705 3.477 1.986 5.474 1.986s5.474-1.281 5.474-1.986c0-.769-3.993-2.499-5.603-2.499-.644.064-2.125.449-3.22.961zM45.851 11.326c-.966.256-1.159 1.089-1.159 5.703v5.382h4.572l-.193-5.574c-.193-5.831-.451-6.279-3.22-5.51zM53.386 11.646c-2.125 1.153-2.898 2.563-2.898 5.318 0 3.78 2.061 5.574 5.86 5.318 2.576-.192 2.833-.384 3.027-1.986s.064-1.73-1.932-1.602c-2.061.192-2.125.064-2.125-2.05s.129-2.243 1.996-2.05c1.546.128 2.125-.128 2.383-1.089.129-.641 0-1.538-.386-1.922-.902-.897-4.25-.897-5.925.064zM61.049 11.71c-.193.513-.258 3.011-.129 5.638l.193 4.741h4.186c3.864 0 4.186-.128 4.379-1.474.193-1.217-.064-1.41-2.06-1.41-1.288 0-2.319-.32-2.319-.641 0-.384.902-.641 1.932-.641 1.481 0 1.932-.256 1.932-1.281s-.451-1.281-1.932-1.281c-1.03 0-1.932-.32-1.932-.641 0-.384.837-.641 1.868-.641 1.804 0 3.027-1.41 2.254-2.627-.58-.961-7.985-.705-8.372.256zM73.993 11.518c-2.125.833-2.962 2.307-3.027 4.998-.065 4.613 1.803 6.215 6.633 5.767 1.868-.128 2.189-.448 2.189-1.794 0-1.41-.257-1.602-2.061-1.41-1.546.128-2.125-.064-2.447-1.089-.58-1.986.644-3.588 2.705-3.588 1.224 0 1.868-.384 1.996-1.217.451-2.05-2.833-3.011-5.989-1.666zM81.914 11.262c-.323.256-.515 2.883-.515 5.831v5.382l2.06-.192c1.61-.128 2.19-.577 2.512-1.794l.386-1.602.515 1.73c.387 1.474.837 1.794 2.512 1.794 2.769 0 3.091-.448 1.932-2.691-.708-1.41-.837-2.114-.322-2.627.837-.833.902-3.652.129-4.87-.644-1.025-8.371-1.858-9.208-.961zm5.28 3.46c0 .705-.257 1.281-.644 1.281-.322 0-.644-.577-.644-1.281s.322-1.281.644-1.281c.387 0 .644.577.644 1.281zM93.441 11.326c-.258.192-.451 2.819-.451 5.767v5.318h4.186c4.057 0 4.186-.064 4.186-1.602 0-1.346-.322-1.602-1.932-1.602-1.03 0-1.932-.32-1.932-.641 0-.384.708-.641 1.61-.641 1.159 0 1.61-.32 1.61-1.281s-.451-1.281-1.61-1.281c-.902 0-1.61-.32-1.61-.641 0-.384.902-.641 1.932-.641 1.61 0 1.932-.256 1.932-1.602 0-1.538-.193-1.602-3.735-1.602-2.061 0-3.992.192-4.186.448zM106.45 11.262c-1.16.32-4.122 8.842-3.542 10.252.515 1.281 3.413 1.153 4.186-.192.579-1.089.644-1.089 1.803 0 1.482 1.281 4.701 1.474 4.701.256 0-.384-.644-2.947-1.482-5.574-1.288-4.229-1.674-4.806-3.027-4.934-.902 0-2.061.064-2.64.192zm1.803 5.831c-.193.641-.322.256-.322-.769 0-1.089.129-1.538.322-1.153.129.448.129 1.346 0 1.922zM115.723 11.326c-.58.192-.837 1.986-.837 5.703v5.382h1.868c1.61 0 1.932-.32 2.189-1.794.257-1.666.257-1.666.772-.32.258.833.902 1.474 1.352 1.474.515 0 1.224-.641 1.546-1.474.515-1.346.58-1.346.58.384.065 1.602.257 1.794 2.061 1.602l1.996-.192.065-5.318c.129-4.934.064-5.318-1.288-5.638-2.061-.513-3.799.705-4.379 3.076l-.451 2.114-.708-2.243c-.902-3.011-2.254-3.78-4.765-2.755zM9.016 11.967c-.193.256-.386 1.089-.386 1.922 0 1.474.064 1.474 7.406 1.474s7.406 0 7.406-1.474c0-2.178-.58-2.435-2.64-1.41-2.318 1.217-7.213 1.217-9.531 0-1.03-.513-1.996-.705-2.254-.513zM7.148 17.669c-1.03 1.089.708 1.538 5.731 1.538h5.409v2.243c0 1.217.322 2.243.644 2.243.386 0 .644-.961.644-2.178 0-2.114.129-2.243 2.576-2.435 1.417-.128 2.576-.513 2.576-.833 0-.705-16.872-1.281-17.581-.577z"/><path fill="#d41443" style="fill:var(--color1,#d41443)" d="M8.629 23.308c0 3.524 1.224 4.229 7.406 4.229s7.406-.705 7.406-4.229c0-1.538-.322-2.178-.966-2.178-.58 0-.966.577-.966 1.538 0 3.588-4.894 3.908-5.603.384-.322-1.858-.515-1.922-3.8-1.922H8.629v2.178zM12.622 30.548c.386 2.05 6.955 1.858 6.955-.128 0-.705-.837-.961-3.606-.961-3.027 0-3.542.192-3.349 1.089z"/></symbol><symbol id="icon-made-left" viewBox="0 0 21 32"><path fill="#ffa5ba" style="fill:var(--color5,#ffa5ba)" d="M2.333.144c-.35.188-.553.563-.553 1.006.006.813.209 1.556.614 2.2l.178.294-.338.381c-.381.425-.473.581-.645 1.088-.141.412-.153 1.162-.031 1.581.43 1.438 1.854 2.269 3.248 1.9.473-.125.761-.281 1.203-.656l.375-.312.35.175c.196.1.528.244.743.325l.381.138v.7c0 1.106.227 1.762.81 2.356s1.498.9 2.29.762c.565-.1 1.117-.381 1.492-.762.583-.594.81-1.25.81-2.356v-.7l.387-.138c.209-.081.54-.225.737-.325l.35-.175.375.312c.442.375.731.531 1.203.656 1.394.369 2.818-.462 3.248-1.9.123-.419.111-1.169-.031-1.581-.172-.506-.264-.662-.645-1.088l-.338-.381.178-.294c.405-.644.608-1.387.614-2.2 0-.444-.203-.819-.553-1.006L18.521 0H2.595l-.264.144zM17.068 2.1c0 .019-.178.313-.399.663-.651 1.031-.626 1.256.239 2.169.313.331.602.662.645.737.233.463-.233 1.038-.749.919-.123-.025-.393-.244-.786-.631-.786-.775-1.056-.862-1.658-.519-.694.4-1.578.806-2.008.925-.608.175-.817.306-.976.638-.129.256-.141.362-.141 1.362 0 1.231-.049 1.431-.399 1.6-.252.125-.301.125-.553 0-.35-.169-.399-.369-.399-1.6 0-1-.012-1.106-.135-1.362-.166-.325-.375-.463-.982-.638-.528-.15-1.308-.494-1.738-.775-.405-.263-.761-.362-1.044-.313-.184.037-.368.181-.86.662-.405.394-.694.625-.817.65-.51.119-.976-.463-.743-.919.043-.075.332-.406.645-.737.866-.912.89-1.138.239-2.169-.221-.35-.399-.644-.399-.663 0-.025 2.929-.038 6.508-.038s6.508.013 6.508.038zM.485 13.206c-.313.212-.485.512-.485.844 0 .225 3.119 16.925 3.229 17.275.055.194.282.425.522.55.227.125.387.125 6.809.125s6.582 0 6.809-.125c.239-.125.467-.356.522-.55.11-.35 3.229-17.05 3.229-17.275 0-.331-.172-.631-.485-.844l-.209-.144H.694l-.209.144zm18.21 2.275c-.061.5-.418 1.587-.682 2.081-1.283 2.375-3.714 3.819-6.729 3.988-2.278.131-4.206-.331-5.82-1.394a7 7 0 0 1-2.265-2.438c-.307-.544-.712-1.712-.774-2.237l-.043-.356h16.356l-.043.356zM4.39 21.919c2.634 1.775 6.569 2.244 9.885 1.169a10.688 10.688 0 0 0 3.18-1.688c.276-.219.295-.219.264-.081-.018.081-.381 1.994-.804 4.244s-.78 4.156-.798 4.231l-.031.144H5.035l-.031-.144c-.018-.075-.375-1.981-.798-4.231s-.786-4.163-.804-4.244c-.031-.137-.012-.137.264.081.16.125.491.356.724.519z"/></symbol><symbol id="icon-made-mid" viewBox="0 0 32 32"><path fill="#ffa5ba" style="fill:var(--color5,#ffa5ba)" d="M29.626 21.411c-1.292-.458-2.382-.344-3.242.018.145-.877.47-1.832 1.17-2.481a1.065 1.065 0 0 0-1.449-1.561c-1.229 1.14-1.706 2.748-1.874 4.081a4.036 4.036 0 0 0-1.058-.311l1.89-9.83a1.065 1.065 0 0 0-1.046-1.266h-.204c.094-.5.141-.997.137-1.47-.016-1.994-.903-3.495-2.374-4.017-1.41-.5-2.59-.35-3.507.066.145-.976.494-2.063 1.282-2.794A1.065 1.065 0 0 0 17.902.285c-1.32 1.225-1.815 2.965-1.982 4.386-.735-.348-1.644-.527-2.708-.33-1.094-1.571-2.613-2.296-4.089-1.942-1.451.349-2.358 1.115-2.901 1.962-.41-.899-.712-2.001-.452-3.036A1.065 1.065 0 0 0 3.705.806c-.439 1.746.095 3.476.729 4.758-1.016.137-2.117.65-3.049 1.866-.578.755-.773 1.698-.596 2.7a1.065 1.065 0 0 0-.674 1.197l3.809 19.809c.096.501.535.864 1.046.864h15.237c.511 0 .949-.362 1.046-.864l.038-.195c.287.198.596.363.927.487 1.266.471 2.447.278 3.044.118.316.085.795.179 1.364.179.506 0 1.084-.075 1.68-.297 2.36-.879 3.615-3.839 3.596-6.178-.015-1.904-.866-3.339-2.276-3.839zm-6.952-9.221c-.49 4.705-4.452 7.91-9.971 7.91s-9.481-3.204-9.971-7.91h19.942zm-6.642-4.675a1.047 1.047 0 0 0 1.86 0c.029-.048.29-.466.769-.777.629-.408 1.35-.46 2.203-.157.851.302.952 1.518.956 2.027.004.463-.064.962-.191 1.453h-7.126c.236-1.19.094-2.492-.289-3.669a2.12 2.12 0 0 1 1.047.346c.479.311.74.729.769.777zM3.077 8.724c.55-.719 1.182-1.068 1.932-1.069h.002c.57 0 1.016.208 1.066.232a1.05 1.05 0 0 0 1.079-.037c.331-.211.51-.592.481-.983-.006-.077-.116-1.893 1.983-2.397.876-.211 1.625.754 1.906 1.178.807 1.22 1.221 3.108.777 4.413H2.954c-.141-.443-.179-.943.122-1.336zM5.851 29.87 3.74 18.892c.138.133.281.263.427.389 2.208 1.901 5.239 2.948 8.535 2.948s6.328-1.047 8.535-2.948c.052-.044.102-.09.152-.135l-.431 2.243c-.02.007-.041.013-.061.021-1.41.5-2.261 1.935-2.276 3.839-.009 1.164.297 2.483.898 3.622l-.192.999H5.85zm21.711-.438c-.943.351-1.881.017-1.916.005a1.04 1.04 0 0 0-.768 0c-.009.004-.96.352-1.917-.005-1.338-.498-2.223-2.556-2.21-4.165.004-.466.095-1.578.858-1.849.349-.124.661-.175.939-.175 1.108 0 1.657.812 1.782 1.024a1.047 1.047 0 0 0 1.862 0c.156-.265.977-1.468 2.721-.849.763.271.854 1.383.858 1.849.013 1.609-.872 3.667-2.21 4.166z"/></symbol><symbol id="icon-made-right" viewBox="0 0 28 32"><path fill="#ffa5ba" style="fill:var(--color5,#ffa5ba);stroke:var(--color5,#ffa5ba)" stroke="#ffa5ba" stroke-width=".308" d="M.667 11.16c.587 2.696 1.894 5.088 3.953 7.163 1.839 1.86 3.455 2.99 6.008 4.163h.001l1.238.581v8.47h1.73v-7.901l.159.047c.229.066.567.066.796 0h.001l.159-.046v7.901h1.73v-8.481l1.179-.536c2.469-1.138 4.263-2.372 6.008-4.141 2.786-2.829 4.217-6.052 4.217-9.561.012-3.851-2.01-7-5.213-8.076-.689-.24-1.054-.274-2.316-.262M.667 11.16l13.614-8.305-.098-.072M.667 11.16C.533 10.545.465 9.706.462 8.884c-.003-.82.059-1.636.194-2.201.723-3.189 2.943-5.549 5.82-6.152M.667 11.16 6.475.531M20.317.482zm0 0c-.658.006-1.07.02-1.444.074-.376.054-.709.146-1.208.303h-.002c-1.188.385-2.356.994-3.133 1.632l-.001.001-.346.291m0 0-.543-.401C11.968 1.152 10.255.553 8.244.471h-.001A15.571 15.571 0 0 0 7.207.47c-.312.01-.586.03-.733.063m7.709 2.25L6.475.532m6.684 3.701c-.238-.226-.669-.537-1.14-.832a9.827 9.827 0 0 0-1.336-.718 10.047 10.047 0 0 0-1.5-.419c-1.975-.362-3.49.022-4.825 1.21l-.001.001a6.666 6.666 0 0 0-.795.844 3.015 3.015 0 0 0-.232.33l.243.044c.238.042.56.096.909.154 1.231.192 2.186.449 3.209.942 1.02.492 2.103 1.215 3.592 2.33l.001.001c.605.464 1.625 1.059 2.651 1.541l.003.001c.458.226.898.452 1.238.636.17.092.316.175.427.242.056.034.104.064.142.091a.608.608 0 0 1 .098.08c.128.137.234.274.318.447s.141.372.182.631c.081.512.098 1.281.098 2.571 0 1.17.003 1.784.034 2.135.015.175.036.271.061.332a.362.362 0 0 0 .096.135c.246.24.583.23.762.031l.004-.004c.05-.052.097-.135.125-.456.027-.32.033-.837.033-1.723 0-1.173.029-1.886.159-2.378a1.75 1.75 0 0 1 .292-.622 2.34 2.34 0 0 1 .488-.459l.002-.001a1.77 1.77 0 0 1 .647-.308c.27-.071.643-.124 1.24-.193h.001c1.864-.207 2.941-.447 4.23-.937.405-.154.704-.268.927-.371.225-.103.357-.188.439-.273a.501.501 0 0 0 .134-.302c.02-.142.014-.324.002-.588v-.003a8.836 8.836 0 0 0-.256-1.707v-.001c-.709-2.681-2.921-4.56-5.316-4.56-1.787 0-3.967.84-5.314 2.061l-.001.001c-.22.197-.405.352-.572.459s-.327.175-.495.182a.843.843 0 0 1-.486-.149 3.572 3.572 0 0 1-.517-.425zm-9.972.388-.003-.001.003.001zm5.826 3.976-.001-.001C7.78 7.682 6.435 7.012 5.25 6.717a14.269 14.269 0 0 0-1.803-.295 6.97 6.97 0 0 0-.715-.04 1.234 1.234 0 0 0-.224.019 2.17 2.17 0 0 0-.148.496 8.7 8.7 0 0 0-.127.893c-.063.665-.077 1.407-.019 1.947.316 2.926 1.588 5.398 4.032 7.743 1.927 1.865 4.325 3.319 7.043 4.235l.002.001.862.305.874-.306c2.542-.871 5.036-2.326 6.844-4.018 1.246-1.168 1.889-1.964 2.711-3.37l.001-.001c.254-.428.603-1.203.874-1.892.135-.344.248-.661.32-.899a2.99 2.99 0 0 0 .058-.218 13.238 13.238 0 0 0-.912.3h-.001c-1.188.432-2.967.816-4.402.944h-.001l-.063.005c-.323.027-.548.045-.715.089-.166.044-.252.106-.311.216-.067.126-.107.328-.127.676-.018.322-.018.746-.018 1.313v.121c0 1.098-.014 1.745-.096 2.184a1.768 1.768 0 0 1-.189.553 1.974 1.974 0 0 1-.328.417c-.235.247-.47.425-.733.54s-.547.164-.871.164c-.5 0-.927-.099-1.284-.317s-.63-.547-.835-.983c-.105-.223-.164-.436-.198-.864-.033-.423-.042-1.067-.042-2.156 0-.906-.009-1.537-.031-1.957a4.775 4.775 0 0 0-.042-.47.824.824 0 0 0-.035-.144c-.001-.001-.007-.008-.023-.02s-.039-.029-.068-.048a3.193 3.193 0 0 0-.225-.13 8.752 8.752 0 0 0-.654-.31c-1.006-.42-2.333-1.164-3.138-1.761-.296-.219-.959-.703-1.48-1.084l-.001-.001zM2.49 6.407c-.002.001-.002.001 0 0zm.036-.038-.001.002.001-.002z"/></symbol><symbol id="icon-arrow-right" viewBox="0 0 32 32"><path d="m19.414 27.414 10-10a2 2 0 0 0 0-2.828l-10-10a2 2 0 1 0-2.828 2.828L23.172 14H4a2 2 0 1 0 0 4h19.172l-6.586 6.586c-.39.39-.586.902-.586 1.414s.195 1.024.586 1.414a2 2 0 0 0 2.828 0z"/></symbol><symbol id="leche" viewBox="0 0 50 50"><path d="M3.645.225c-.546.293-.863.879-.863 1.572.01 1.27.326 2.432.96 3.437l.278.46-.528.595c-.595.664-.739.908-1.007 1.7-.221.644-.24 1.816-.048 2.47.671 2.246 2.897 3.545 5.074 2.969.739-.196 1.19-.44 1.88-1.026l.586-.488.547.274c.307.156.825.38 1.16.507l.595.215v1.094c0 1.728.355 2.754 1.266 3.682.912.927 2.341 1.406 3.579 1.191.882-.156 1.745-.596 2.33-1.191.912-.928 1.267-1.954 1.267-3.682V12.91l.604-.215c.326-.127.845-.351 1.152-.508l.546-.273.585.488c.691.586 1.142.83 1.88 1.026 2.178.576 4.404-.723 5.075-2.969.192-.654.173-1.826-.048-2.47-.268-.792-.412-1.036-1.007-1.7l-.527-.596.278-.459c.633-1.005.95-2.168.96-3.437 0-.693-.318-1.28-.864-1.572L28.942 0H4.058l-.413.225ZM26.67 3.28c0 .03-.279.489-.624 1.035-1.017 1.612-.978 1.963.374 3.39.49.517.94 1.034 1.008 1.151.364.723-.365 1.622-1.17 1.436-.193-.04-.615-.38-1.229-.986-1.228-1.211-1.65-1.348-2.59-.81-1.084.624-2.465 1.259-3.137 1.444-.95.274-1.276.479-1.525.996-.201.4-.22.567-.22 2.13 0 1.923-.078 2.236-.624 2.5-.394.195-.47.195-.864 0-.547-.264-.623-.577-.623-2.5 0-1.563-.02-1.73-.211-2.13-.26-.507-.585-.722-1.535-.996-.825-.234-2.043-.771-2.715-1.21-.633-.41-1.19-.567-1.63-.489-.289.059-.576.283-1.344 1.035-.633.616-1.084.977-1.276 1.016-.796.186-1.525-.723-1.16-1.436.067-.117.518-.634 1.007-1.152 1.352-1.426 1.39-1.777.374-3.389-.345-.546-.624-1.005-.624-1.035 0-.039 4.576-.058 10.169-.058 5.593 0 10.169.02 10.169.058ZM.758 20.635c-.49.332-.758.8-.758 1.318 0 .352 4.873 26.445 5.046 26.992.086.303.441.664.815.86C6.216 50 6.466 50 16.5 50c10.034 0 10.284 0 10.639-.195.374-.196.729-.557.815-.86.173-.547 5.046-26.64 5.046-26.992 0-.517-.269-.986-.758-1.318l-.326-.225H1.084l-.326.225Zm28.453 3.554c-.096.782-.653 2.48-1.065 3.252-2.005 3.711-5.804 5.967-10.514 6.23-3.559.206-6.571-.517-9.094-2.177a10.954 10.954 0 0 1-3.54-3.808c-.48-.85-1.113-2.676-1.209-3.497l-.067-.556h25.556l-.067.556ZM6.859 34.248c4.115 2.774 10.264 3.506 15.445 1.826 1.727-.556 3.492-1.494 4.969-2.636.432-.342.46-.342.413-.128-.03.127-.595 3.116-1.257 6.631-.662 3.516-1.218 6.494-1.247 6.612l-.048.224H7.866l-.048-.224c-.028-.117-.585-3.096-1.247-6.612-.662-3.515-1.228-6.504-1.256-6.63-.048-.215-.02-.215.412.127.25.195.767.556 1.132.81Z" fill="#FFA5BA"/></symbol><symbol id="manzanas" viewBox="0 0 50 50"><path d="M46.138 33.454c-2.018-.716-3.721-.537-5.066.028.226-1.37.735-2.862 1.828-3.876a1.664 1.664 0 1 0-2.264-2.44c-1.92 1.782-2.665 4.295-2.928 6.377a6.335 6.335 0 0 0-1.652-.486l2.953-15.36a1.663 1.663 0 0 0-1.634-1.977h-.319c.147-.782.22-1.559.215-2.297-.025-3.115-1.412-5.462-3.71-6.277-2.202-.781-4.046-.546-5.479.104.227-1.525.772-3.224 2.003-4.366A1.664 1.664 0 1 0 27.82.444c-2.062 1.914-2.835 4.634-3.096 6.854-1.148-.544-2.569-.822-4.232-.516-1.71-2.455-4.083-3.587-6.39-3.034-2.268.545-3.684 1.743-4.532 3.066C8.93 5.41 8.458 3.687 8.865 2.07a1.664 1.664 0 0 0-3.227-.811c-.687 2.728.147 5.43 1.139 7.434-1.588.215-3.308 1.015-4.764 2.916-.903 1.18-1.208 2.653-.93 4.218A1.664 1.664 0 0 0 .03 17.698L5.98 48.65c.151.784.837 1.35 1.635 1.35h23.807c.798 0 1.483-.566 1.634-1.35l.059-.304c.448.309.93.567 1.448.76 1.978.737 3.822.434 4.755.184.494.133 1.243.28 2.131.28.791 0 1.694-.117 2.625-.464 3.688-1.374 5.648-5.999 5.619-9.653-.023-2.975-1.353-5.218-3.556-6ZM35.276 19.047c-.766 7.353-6.956 12.36-15.58 12.36-8.623 0-14.813-5.008-15.58-12.36h31.16Zm-10.378-7.305c.288.544.837.885 1.454.885.616 0 1.165-.34 1.453-.885a4.117 4.117 0 0 1 1.202-1.214c.983-.638 2.109-.718 3.442-.245 1.33.471 1.487 2.371 1.494 3.166a8.96 8.96 0 0 1-.298 2.27H22.51c.368-1.858.147-3.893-.451-5.732a3.306 3.306 0 0 1 1.635.541 4.117 4.117 0 0 1 1.203 1.214Zm-20.242 1.89c.86-1.123 1.847-1.67 3.02-1.67h.002c.892 0 1.588.324 1.667.362.532.296 1.17.269 1.685-.059.518-.329.797-.924.752-1.535-.01-.12-.18-2.959 3.098-3.746 1.37-.33 2.54 1.177 2.979 1.84 1.261 1.908 1.908 4.857 1.213 6.895H4.466c-.22-.691-.28-1.473.19-2.087Zm4.334 33.04L5.692 29.52c.216.207.439.41.668.607 3.45 2.97 8.186 4.607 13.336 4.607s9.887-1.636 13.337-4.607c.08-.069.159-.14.237-.21l-.673 3.505c-.032.01-.064.02-.096.032-2.203.781-3.532 3.024-3.556 5.999-.014 1.82.465 3.879 1.404 5.658l-.3 1.561H8.99Zm33.924-.684c-1.474.549-2.94.027-2.994.007a1.63 1.63 0 0 0-1.2 0c-.014.005-1.5.55-2.994-.007-2.09-.779-3.473-3.994-3.453-6.509.006-.728.147-2.466 1.34-2.889a4.38 4.38 0 0 1 1.468-.273c1.73 0 2.59 1.269 2.784 1.6.287.547.837.89 1.455.89.618 0 1.167-.343 1.454-.89.244-.415 1.526-2.293 4.252-1.327 1.193.423 1.335 2.161 1.34 2.89.02 2.514-1.362 5.73-3.452 6.508Z" fill="#FFA5BA"/></symbol><symbol id="corazon" viewBox="0 0 50 50"><path d="M1.083 18.136c.955 4.38 3.079 8.268 6.424 11.639 2.989 3.023 5.614 4.86 9.763 6.766l2.012.945V51.25h2.812V38.41l.258.076h.001c.373.107.921.107 1.294 0h.001l.258-.076v12.84h2.812V37.469l1.914-.871h.002c4.012-1.85 6.927-3.855 9.763-6.73 4.527-4.597 6.853-9.834 6.853-15.536.02-6.257-3.266-11.375-8.472-13.123-1.12-.389-1.713-.445-3.763-.426M1.083 18.136 23.206 4.64l-.158-.118M1.083 18.136c-.217-.999-.328-2.364-.333-3.698-.005-1.333.097-2.658.315-3.577C2.239 5.68 5.848 1.844 10.522.864M1.083 18.136 10.522.864m22.493-.08.002.25-.002-.25Zm0 0c-1.069.009-1.739.032-2.347.119-.611.087-1.152.238-1.963.492h-.003c-1.93.627-3.828 1.615-5.09 2.652l-.002.002-.562.473m0 0-.882-.651c-2.718-2-5.501-2.973-8.769-3.106h-.002a26.618 26.618 0 0 0-1.682-.003c-.508.016-.953.05-1.191.102m12.526 3.658L10.522.864m10.862 6.015h-.001c-.386-.367-1.087-.872-1.853-1.353-.764-.479-1.573-.92-2.17-1.166a16.247 16.247 0 0 0-2.439-.68c-3.209-.588-5.67.036-7.84 1.966l-.002.002c-.459.4-.944.928-1.293 1.37a4.905 4.905 0 0 0-.377.537 157.47 157.47 0 0 0 1.872.321c2 .312 3.552.73 5.215 1.532 1.658.798 3.417 1.973 5.838 3.785l.002.002c.983.755 2.642 1.721 4.308 2.504l.004.002c.744.367 1.46.734 2.012 1.034.276.15.514.284.695.393.09.055.168.105.23.148.058.04.118.084.16.13.208.222.38.445.517.726.136.28.23.605.296 1.025.131.832.16 2.082.16 4.177 0 1.901.005 2.9.054 3.47.025.284.059.44.099.54a.58.58 0 0 0 .156.219c.4.39.947.374 1.239.05l.006-.007c.08-.084.158-.219.203-.741.044-.52.054-1.36.054-2.8 0-1.905.047-3.064.26-3.864.107-.407.26-.728.474-1.01.212-.28.476-.51.792-.746l.003-.002c.32-.231.598-.382 1.051-.501.44-.116 1.044-.202 2.015-.314 3.03-.336 4.78-.726 6.875-1.523.657-.25 1.143-.437 1.506-.604.366-.168.58-.305.713-.444.123-.129.187-.273.217-.491.032-.231.023-.527.003-.955v-.005c-.019-.747-.208-2.003-.415-2.773v-.001c-1.152-4.358-4.748-7.41-8.64-7.41-2.904 0-6.446 1.364-8.635 3.348l-.002.001c-.357.32-.658.572-.929.746-.271.175-.532.285-.805.295-.277.011-.532-.081-.789-.242-.253-.159-.525-.394-.84-.69Zm-16.205.63Zm9.467 6.462-.002-.002c-2.002-1.485-4.187-2.574-6.113-3.052a23.193 23.193 0 0 0-2.93-.48 11.279 11.279 0 0 0-1.16-.064 2.191 2.191 0 0 0-.364.03c-.08.155-.163.429-.24.806-.085.41-.155.912-.206 1.45-.103 1.081-.126 2.287-.032 3.165.513 4.754 2.581 8.772 6.551 12.582h.001c3.132 3.03 7.03 5.394 11.446 6.883l.003.001 1.4.496 1.42-.496h.002c4.131-1.416 8.183-3.78 11.122-6.53 2.025-1.898 3.07-3.192 4.405-5.477v-.001c.414-.695.981-1.956 1.42-3.075.22-.558.404-1.075.52-1.462.042-.139.074-.257.095-.353-.068.018-.147.04-.236.066-.326.097-.768.245-1.246.422H40.5c-1.93.703-4.821 1.326-7.152 1.534h-.002l-.102.008c-.525.043-.891.073-1.163.145-.27.07-.41.172-.505.35-.109.205-.174.534-.206 1.1-.03.523-.03 1.212-.029 2.134v.196c0 1.784-.023 2.837-.156 3.549a2.86 2.86 0 0 1-.307.9c-.14.25-.318.46-.532.677-.382.4-.764.69-1.192.878-.428.188-.888.267-1.415.267-.813 0-1.507-.161-2.086-.515-.58-.354-1.023-.888-1.357-1.598-.17-.363-.267-.708-.322-1.404-.054-.687-.068-1.734-.068-3.504 0-1.472-.015-2.498-.05-3.18a7.652 7.652 0 0 0-.069-.763 1.384 1.384 0 0 0-.041-.19.274.274 0 0 0-.017-.044 1.494 1.494 0 0 0-.148-.11 5.216 5.216 0 0 0-.366-.212 14.35 14.35 0 0 0-1.064-.504c-1.635-.682-3.79-1.892-5.098-2.861-.48-.356-1.558-1.143-2.406-1.762h-.001Zm-10.6-3.56c-.004.002-.003.002 0 0Zm.06-.06-.002.002.001-.003Z" fill="#FFA5BA" stroke="#FFA5BA" stroke-width=".5"/></symbol></defs></svg>